<svg version="1.2" baseProfile="tiny-ps" xmlns="http://www.w3.org/2000/svg" viewBox="0 0 24 24" width="24" height="24">
	<title>iconmonstr-delivery-8-svg</title>
	<style>
		tspan { white-space:pre }
		.shp0 { fill: #ffffff } 
	</style>
	<path id="Layer" fill-rule="evenodd" class="shp0" d="M3 19C2.2 19 1.44 18.68 0.88 18.12C0.32 17.56 0 16.8 0 16L0 13C0 5.82 5.38 0 12 0C18.62 0 24 5.82 24 13L24 16C24 16.8 23.68 17.56 23.12 18.12C22.56 18.68 21.8 19 21 19L20.15 19C17.46 23.63 13.25 24 12 24C10.75 24 6.54 23.63 3.85 19L3 19ZM20 13.12C19.4 13.36 18.73 12.94 18.73 12.33C18.73 12.02 18.71 11.72 18.68 11.41C16.92 11.16 15.06 9.49 14.98 7.69C13.66 9.69 10.45 11.86 7.94 11.86C9.02 11.16 9.77 9.09 9.84 8.35C9.26 9.44 6.94 11.49 5.29 11.84L5.27 12.33C5.27 12.95 4.6 13.36 4 13.12L4 16.89C4.29 17.15 4.63 17.36 5.04 17.49C5.27 17.56 5.45 17.71 5.56 17.91C7.77 21.96 10.99 22 12 22C12.93 22 15.72 21.96 17.88 18.83C16.81 19.26 15.61 19.43 14.12 19.48C13.75 20.08 12.94 20.5 12 20.5C10.71 20.5 9.67 19.72 9.67 18.75C9.67 17.78 10.71 17 12 17C12.93 17 13.74 17.41 14.11 18C16.01 17.98 18.45 17.67 20 15.36L20 13.12ZM9 12.5C9.69 12.5 10.24 13.17 10.24 14C10.24 14.83 9.69 15.5 9 15.5C8.31 15.5 7.76 14.83 7.76 14C7.76 13.17 8.31 12.5 9 12.5ZM16.24 14C16.24 14.83 15.69 15.5 15 15.5C14.31 15.5 13.76 14.83 13.76 14C13.76 13.17 14.31 12.5 15 12.5C15.69 12.5 16.24 13.17 16.24 14ZM20.48 11L21.84 11C20.98 5.88 16.9 2 12 2C7.1 2 3.02 5.88 2.16 11L3.52 11C4.04 6.98 6.93 3.28 12 3.28C17.07 3.28 19.96 6.98 20.48 11Z" />
</svg>